# xmcd
#
# Track frame offsets: 
#        150
#        18897
#        34978
#        53598
#        72814
#        92980
#        113133
#        132603
#        150244
#        165516
#        178697
#        192778
#        207195
#        223679
#        244526
#        262722
#        284063
#        300692
#        321628
#        337910
#
# Disc length: 4632 seconds
#
# Revision: 0
# Processed by: cddbd v1.5.2PL0 Copyright (c) Steve Scherf et al.
# Submitted via: ExactAudioCopy v0.99pb4
#
DISCID=1b121614
DTITLE=Various Artist - 100 Hits Love (The Ultimate Collection) [CD1)
DYEAR=2008
DGENRE=Pop
TTITLE0=Westlife - Swear It Again
TTITLE1=Backstreet Boys - As Long As You Love Me
TTITLE2=Honeyz - Finally Found
TTITLE3=Darren Hayes - Insatiable
TTITLE4=Lonestar - Amazed
TTITLE5=Curtis Stigers - I Wonder Why
TTITLE6=Appleton - Don'T Worry
TTITLE7=The Jackson 5 - I'Ll Be There
TTITLE8=Donna Summer - Love To Love You Baby
TTITLE9=The Foundations - Baby, Now That I'Ve Found You
TTITLE10=Etta James - I Just Want To Make Love To You
TTITLE11=The Commitments - I Never Loved A Man
TTITLE12=The Righteous Brothers - Unchained Melody
TTITLE13=Jamie O'Neal - All By Myself
TTITLE14=Tina Arena - Chains
TTITLE15=Dina Carroll - Don'T Be A Stranger
TTITLE16=Vanessa Williams - Save The Best For Last
TTITLE17=Dee C. Lee - See The Day
TTITLE18=Beverley Craven - Promise Me
TTITLE19=Michael Bublu - Me and Mrs. You
EXTD=
EXTT0=
EXTT1=
EXTT2=
EXTT3=
EXTT4=
EXTT5=
EXTT6=
EXTT7=
EXTT8=
EXTT9=
EXTT10=
EXTT11=
EXTT12=
EXTT13=
EXTT14=
EXTT15=
EXTT16=
EXTT17=
EXTT18=
EXTT19=
PLAYORDER=
